<mxfile host="app.diagrams.net" agent="Mozilla/5.0 (Windows NT 10.0; Win64; x64) AppleWebKit/537.36 (KHTML, like Gecko) Chrome/130.0.0.0 Safari/537.36 Edg/130.0.0.0" version="24.8.4">
  <diagram id="2SDjQrGhjbzdbfJO4S33" name="Страница — 1">
    <mxGraphModel dx="1106" dy="611" grid="1" gridSize="10" guides="1" tooltips="1" connect="1" arrows="1" fold="1" page="1" pageScale="1" pageWidth="827" pageHeight="1169" math="0" shadow="0">
      <root>
        <mxCell id="0" />
        <mxCell id="1" parent="0" />
        <mxCell id="ZJ_xgPcFpwDzIvBmOLVj-1" value="start" style="strokeWidth=2;html=1;shape=mxgraph.flowchart.start_1;whiteSpace=wrap;fontFamily=Times New Roman;fontSize=14;" parent="1" vertex="1">
          <mxGeometry x="360" y="40" width="120" height="80" as="geometry" />
        </mxCell>
        <mxCell id="ZJ_xgPcFpwDzIvBmOLVj-2" value="a = -3.1" style="rounded=1;whiteSpace=wrap;html=1;absoluteArcSize=1;arcSize=14;strokeWidth=2;fontFamily=Times New Roman;fontSize=14;" parent="1" vertex="1">
          <mxGeometry x="360" y="160" width="120" height="120" as="geometry" />
        </mxCell>
        <mxCell id="ZJ_xgPcFpwDzIvBmOLVj-3" value="" style="verticalLabelPosition=bottom;verticalAlign=top;html=1;shape=hexagon;perimeter=hexagonPerimeter2;arcSize=6;size=0.27;strokeWidth=2;fontFamily=Times New Roman;fontSize=14;" parent="1" vertex="1">
          <mxGeometry x="360" y="320" width="120" height="80" as="geometry" />
        </mxCell>
        <mxCell id="ZJ_xgPcFpwDzIvBmOLVj-4" value="" style="verticalLabelPosition=bottom;verticalAlign=top;html=1;shape=hexagon;perimeter=hexagonPerimeter2;arcSize=6;size=0.27;strokeWidth=2;fontFamily=Times New Roman;fontSize=14;" parent="1" vertex="1">
          <mxGeometry x="360" y="440" width="120" height="80" as="geometry" />
        </mxCell>
        <mxCell id="ZJ_xgPcFpwDzIvBmOLVj-5" value="&lt;br style=&quot;font-size: 14px;&quot;&gt;&lt;span style=&quot;margin: 0px; padding: 0px; border: 0px; display: inline-block; text-align: left; font-size: 14px; font-style: normal; font-variant-ligatures: normal; font-variant-caps: normal; font-weight: 400; letter-spacing: normal; orphans: 2; text-indent: 0px; text-transform: none; widows: 2; word-spacing: 0px; -webkit-text-stroke-width: 0px; white-space: nowrap; text-decoration-thickness: initial; text-decoration-style: initial; text-decoration-color: initial; box-sizing: content-box !important;&quot; class=&quot;mjx-mi&quot; id=&quot;MJXc-Node-1325&quot;&gt;&lt;span style=&quot;margin: 0px; padding: 0.24em 0px 0.3em; border: 0px; display: block; text-align: left; white-space: pre; font-size: 14px; box-sizing: content-box !important;&quot; class=&quot;mjx-char MJXc-TeX-math-I&quot;&gt;y = a&lt;/span&gt;&lt;/span&gt;&lt;span style=&quot;margin: 0px; padding: 0px; border: 0px; display: inline-block; text-align: left; font-size: 14px; font-style: normal; font-variant-ligatures: normal; font-variant-caps: normal; font-weight: 400; letter-spacing: normal; orphans: 2; text-indent: 0px; text-transform: none; widows: 2; word-spacing: 0px; -webkit-text-stroke-width: 0px; white-space: nowrap; text-decoration-thickness: initial; text-decoration-style: initial; text-decoration-color: initial; box-sizing: content-box !important;&quot; class=&quot;mjx-msup&quot; id=&quot;MJXc-Node-1326&quot;&gt;&lt;span style=&quot;margin: 0px; padding: 0px; border: 0px; display: inline-block; text-align: left; font-size: 14px; box-sizing: content-box !important;&quot; class=&quot;mjx-base&quot;&gt;&lt;span style=&quot;margin: 0px; padding: 0px; border: 0px; display: inline-block; text-align: left; font-size: 14px; box-sizing: content-box !important;&quot; class=&quot;mjx-mi&quot; id=&quot;MJXc-Node-1327&quot;&gt;&lt;span style=&quot;margin: 0px; padding: 0.24em 0px 0.3em; border: 0px; display: block; text-align: left; white-space: pre; font-size: 14px; box-sizing: content-box !important;&quot; class=&quot;mjx-char MJXc-TeX-math-I&quot;&gt;e&lt;/span&gt;&lt;/span&gt;&lt;/span&gt;&lt;span style=&quot;margin: 0px; padding: 0px 0.071em 0px 0px; border: 0px; display: inline-block; text-align: left; font-size: 14px; vertical-align: 0.584em; box-sizing: content-box !important;&quot; class=&quot;mjx-sup&quot;&gt;&lt;span style=&quot;margin: 0px; padding: 0px; border: 0px; display: inline-block; text-align: left; font-size: 14px; box-sizing: content-box !important;&quot; class=&quot;mjx-mrow&quot; id=&quot;MJXc-Node-1328&quot;&gt;&lt;span style=&quot;margin: 0px; padding: 0px; border: 0px; display: inline-block; text-align: left; font-size: 14px; box-sizing: content-box !important;&quot; class=&quot;mjx-mn&quot; id=&quot;MJXc-Node-1329&quot;&gt;&lt;span style=&quot;margin: 0px; padding: 0.359em 0px; border: 0px; display: block; text-align: left; white-space: pre; font-size: 14px; box-sizing: content-box !important;&quot; class=&quot;mjx-char MJXc-TeX-main-R&quot;&gt;2&lt;/span&gt;&lt;/span&gt;&lt;span style=&quot;margin: 0px; padding: 0px; border: 0px; display: inline-block; text-align: left; font-size: 14px; box-sizing: content-box !important;&quot; class=&quot;mjx-mi&quot; id=&quot;MJXc-Node-1330&quot;&gt;&lt;span style=&quot;margin: 0px; padding: 0.24em 0px 0.3em; border: 0px; display: block; text-align: left; white-space: pre; font-size: 14px; box-sizing: content-box !important;&quot; class=&quot;mjx-char MJXc-TeX-math-I&quot;&gt;x&lt;/span&gt;&lt;/span&gt;&lt;span style=&quot;margin: 0px; padding: 0px; border: 0px; display: inline-block; text-align: left; font-size: 14px; box-sizing: content-box !important;&quot; class=&quot;mjx-mi&quot; id=&quot;MJXc-Node-1331&quot;&gt;&lt;span style=&quot;margin: 0px; padding: 0.418em 0px 0.3em; border: 0px; display: block; text-align: left; white-space: pre; font-size: 14px; box-sizing: content-box !important;&quot; class=&quot;mjx-char MJXc-TeX-math-I&quot;&gt;t&lt;/span&gt;&lt;/span&gt;&lt;/span&gt;&lt;/span&gt;&lt;/span&gt;&lt;span style=&quot;margin: 0px 0px 0px 0.167em; padding: 0px; border: 0px; display: inline-block; text-align: left; font-size: 14px; font-style: normal; font-variant-ligatures: normal; font-variant-caps: normal; font-weight: 400; letter-spacing: normal; orphans: 2; text-indent: 0px; text-transform: none; widows: 2; word-spacing: 0px; -webkit-text-stroke-width: 0px; white-space: nowrap; text-decoration-thickness: initial; text-decoration-style: initial; text-decoration-color: initial; box-sizing: content-box !important;&quot; class=&quot;mjx-mrow MJXc-space1&quot; id=&quot;MJXc-Node-1332&quot;&gt;&lt;span style=&quot;margin: 0px; padding: 0px; border: 0px; display: inline-block; text-align: left; font-size: 14px; box-sizing: content-box !important;&quot; class=&quot;mjx-mi&quot; id=&quot;MJXc-Node-1333&quot;&gt;&lt;span style=&quot;margin: 0px; padding: 0.181em 0px 0.359em; border: 0px; display: block; text-align: left; white-space: pre; font-size: 14px; box-sizing: content-box !important;&quot; class=&quot;mjx-char MJXc-TeX-main-R&quot;&gt;cos&lt;/span&gt;&lt;/span&gt;&lt;span style=&quot;margin: 0px; padding: 0px; border: 0px; display: inline-block; text-align: left; font-size: 14px; box-sizing: content-box !important;&quot; class=&quot;mjx-mo&quot; id=&quot;MJXc-Node-1334&quot;&gt;&lt;span style=&quot;margin: 0px; padding: 0px; border: 0px; display: block; text-align: left; white-space: pre; font-size: 14px; box-sizing: content-box !important;&quot; class=&quot;mjx-char&quot;&gt;&lt;/span&gt;&lt;/span&gt;&lt;/span&gt;&lt;span style=&quot;margin: 0px; padding: 0px; border: 0px; display: inline-block; text-align: left; font-size: 14px; font-style: normal; font-variant-ligatures: normal; font-variant-caps: normal; font-weight: 400; letter-spacing: normal; orphans: 2; text-indent: 0px; text-transform: none; widows: 2; word-spacing: 0px; -webkit-text-stroke-width: 0px; white-space: nowrap; text-decoration-thickness: initial; text-decoration-style: initial; text-decoration-color: initial; box-sizing: content-box !important;&quot; class=&quot;mjx-mrow&quot; id=&quot;MJXc-Node-1335&quot;&gt;&lt;span style=&quot;margin: 0px; padding: 0px; border: 0px; display: inline-block; text-align: left; font-size: 14px; box-sizing: content-box !important;&quot; class=&quot;mjx-mo&quot; id=&quot;MJXc-Node-1336&quot;&gt;&lt;span style=&quot;margin: 0px; padding: 0.953em 0px; border: 0px; display: block; text-align: left; white-space: pre; font-size: 14px; box-sizing: content-box !important;&quot; class=&quot;mjx-char MJXc-TeX-size2-R&quot;&gt;(π/2&lt;/span&gt;&lt;/span&gt;&lt;span style=&quot;margin: 0px; padding: 0px; border: 0px; display: inline-block; text-align: left; font-size: 14px; box-sizing: content-box !important;&quot; class=&quot;mjx-mfrac&quot; id=&quot;MJXc-Node-1337&quot;&gt;&lt;span style=&quot;margin: 0px; padding: 0px; border: 0px; display: inline-block; text-align: left; width: 0px; height: 1.844em; vertical-align: -0.711em; font-size: 14px; box-sizing: content-box !important;&quot; class=&quot;mjx-vsize&quot;&gt;&lt;/span&gt;&lt;/span&gt;&lt;span style=&quot;margin: 0px; padding: 0px 0.267em; border: 0px; display: inline-block; text-align: left; font-size: 14px; box-sizing: content-box !important;&quot; class=&quot;mjx-mo&quot; id=&quot;MJXc-Node-1340&quot;&gt;&lt;span style=&quot;margin: 0px; padding: 0.3em 0px 0.418em; border: 0px; display: block; text-align: left; white-space: pre; font-size: 14px; box-sizing: content-box !important;&quot; class=&quot;mjx-char MJXc-TeX-main-R&quot;&gt;+&lt;/span&gt;&lt;/span&gt;&lt;span style=&quot;margin: 0px; padding: 0px; border: 0px; display: inline-block; text-align: left; font-size: 14px; box-sizing: content-box !important;&quot; class=&quot;mjx-mi&quot; id=&quot;MJXc-Node-1341&quot;&gt;&lt;span style=&quot;margin: 0px; padding: 0.418em 0px 0.3em; border: 0px; display: block; text-align: left; white-space: pre; font-size: 14px; box-sizing: content-box !important;&quot; class=&quot;mjx-char MJXc-TeX-math-I&quot;&gt;t&lt;/span&gt;&lt;/span&gt;&lt;span style=&quot;margin: 0px; padding: 0px; border: 0px; display: inline-block; text-align: left; font-size: 14px; box-sizing: content-box !important;&quot; class=&quot;mjx-mo&quot; id=&quot;MJXc-Node-1342&quot;&gt;&lt;span style=&quot;margin: 0px; padding: 0.953em 0px; border: 0px; display: block; text-align: left; white-space: pre; font-size: 14px; box-sizing: content-box !important;&quot; class=&quot;mjx-char MJXc-TeX-size2-R&quot;&gt;)&lt;/span&gt;&lt;/span&gt;&lt;/span&gt;&lt;div style=&quot;font-size: 14px;&quot;&gt;&lt;br style=&quot;font-size: 14px;&quot;&gt;&lt;/div&gt;" style="rounded=1;whiteSpace=wrap;html=1;absoluteArcSize=1;arcSize=14;strokeWidth=2;fontColor=#000000;labelBackgroundColor=none;fontFamily=Times New Roman;fontSize=14;" parent="1" vertex="1">
          <mxGeometry x="360" y="560" width="120" height="120" as="geometry" />
        </mxCell>
        <mxCell id="ZJ_xgPcFpwDzIvBmOLVj-6" value="output x, t, y" style="shape=parallelogram;html=1;strokeWidth=2;perimeter=parallelogramPerimeter;whiteSpace=wrap;rounded=1;arcSize=12;size=0.23;fontFamily=Times New Roman;fontSize=14;" parent="1" vertex="1">
          <mxGeometry x="360" y="720" width="120" height="80" as="geometry" />
        </mxCell>
        <mxCell id="ZJ_xgPcFpwDzIvBmOLVj-7" value="end" style="strokeWidth=2;html=1;shape=mxgraph.flowchart.start_1;whiteSpace=wrap;fontFamily=Times New Roman;fontSize=14;" parent="1" vertex="1">
          <mxGeometry x="360" y="880" width="120" height="80" as="geometry" />
        </mxCell>
        <mxCell id="ZJ_xgPcFpwDzIvBmOLVj-8" value="t = 0; t&amp;nbsp;&lt;span style=&quot;font-size: 14px; text-align: left; white-space: pre; background-color: rgb(255, 255, 255);&quot;&gt;≤&lt;/span&gt;&amp;nbsp;&lt;span style=&quot;font-size: 14px; text-align: left; white-space: pre;&quot;&gt;π/2;&lt;/span&gt;&lt;div style=&quot;font-size: 14px;&quot;&gt;&lt;span style=&quot;font-size: 14px; text-align: left; white-space: pre;&quot;&gt;t += 0.3&lt;/span&gt;&lt;/div&gt;" style="text;html=1;align=center;verticalAlign=middle;whiteSpace=wrap;rounded=0;fontFamily=Times New Roman;fontSize=14;" parent="1" vertex="1">
          <mxGeometry x="360" y="440" width="120" height="80" as="geometry" />
        </mxCell>
        <mxCell id="ZJ_xgPcFpwDzIvBmOLVj-9" value="x = 0; x&amp;nbsp;&lt;span style=&quot;font-size: 14px; text-align: left; white-space: pre; background-color: rgb(255, 255, 255);&quot;&gt;≤&lt;/span&gt;&amp;nbsp;1&lt;span style=&quot;font-size: 14px; text-align: left; white-space: pre;&quot;&gt;;&lt;/span&gt;&lt;div style=&quot;font-size: 14px;&quot;&gt;&lt;span style=&quot;font-size: 14px; text-align: left; white-space: pre;&quot;&gt;x += 0.1&lt;/span&gt;&lt;/div&gt;" style="text;html=1;align=center;verticalAlign=middle;whiteSpace=wrap;rounded=0;fontFamily=Times New Roman;fontSize=14;" parent="1" vertex="1">
          <mxGeometry x="360" y="320" width="120" height="80" as="geometry" />
        </mxCell>
        <mxCell id="ZJ_xgPcFpwDzIvBmOLVj-10" value="" style="endArrow=classic;html=1;rounded=0;exitX=0.5;exitY=1;exitDx=0;exitDy=0;exitPerimeter=0;entryX=0.5;entryY=0;entryDx=0;entryDy=0;fontFamily=Times New Roman;fontSize=14;" parent="1" source="ZJ_xgPcFpwDzIvBmOLVj-1" target="ZJ_xgPcFpwDzIvBmOLVj-2" edge="1">
          <mxGeometry width="50" height="50" relative="1" as="geometry">
            <mxPoint x="400" y="280" as="sourcePoint" />
            <mxPoint x="450" y="230" as="targetPoint" />
          </mxGeometry>
        </mxCell>
        <mxCell id="ZJ_xgPcFpwDzIvBmOLVj-11" value="" style="endArrow=classic;html=1;rounded=0;exitX=0.5;exitY=1;exitDx=0;exitDy=0;entryX=0.5;entryY=0;entryDx=0;entryDy=0;fontFamily=Times New Roman;fontSize=14;" parent="1" source="ZJ_xgPcFpwDzIvBmOLVj-2" target="ZJ_xgPcFpwDzIvBmOLVj-9" edge="1">
          <mxGeometry width="50" height="50" relative="1" as="geometry">
            <mxPoint x="400" y="280" as="sourcePoint" />
            <mxPoint x="450" y="230" as="targetPoint" />
          </mxGeometry>
        </mxCell>
        <mxCell id="ZJ_xgPcFpwDzIvBmOLVj-12" value="" style="endArrow=classic;html=1;rounded=0;exitX=0.5;exitY=1;exitDx=0;exitDy=0;entryX=0.5;entryY=0;entryDx=0;entryDy=0;fontFamily=Times New Roman;fontSize=14;" parent="1" source="ZJ_xgPcFpwDzIvBmOLVj-9" target="ZJ_xgPcFpwDzIvBmOLVj-8" edge="1">
          <mxGeometry width="50" height="50" relative="1" as="geometry">
            <mxPoint x="400" y="450" as="sourcePoint" />
            <mxPoint x="450" y="400" as="targetPoint" />
          </mxGeometry>
        </mxCell>
        <mxCell id="ZJ_xgPcFpwDzIvBmOLVj-13" value="" style="endArrow=classic;html=1;rounded=0;exitX=0.5;exitY=1;exitDx=0;exitDy=0;entryX=0.5;entryY=0;entryDx=0;entryDy=0;fontFamily=Times New Roman;fontSize=14;" parent="1" source="ZJ_xgPcFpwDzIvBmOLVj-8" target="ZJ_xgPcFpwDzIvBmOLVj-5" edge="1">
          <mxGeometry width="50" height="50" relative="1" as="geometry">
            <mxPoint x="400" y="450" as="sourcePoint" />
            <mxPoint x="450" y="400" as="targetPoint" />
          </mxGeometry>
        </mxCell>
        <mxCell id="ZJ_xgPcFpwDzIvBmOLVj-14" value="" style="endArrow=classic;html=1;rounded=0;exitX=0.5;exitY=1;exitDx=0;exitDy=0;entryX=0.5;entryY=0;entryDx=0;entryDy=0;fontFamily=Times New Roman;fontSize=14;" parent="1" source="ZJ_xgPcFpwDzIvBmOLVj-5" target="ZJ_xgPcFpwDzIvBmOLVj-6" edge="1">
          <mxGeometry width="50" height="50" relative="1" as="geometry">
            <mxPoint x="400" y="720" as="sourcePoint" />
            <mxPoint x="450" y="670" as="targetPoint" />
          </mxGeometry>
        </mxCell>
        <mxCell id="ZJ_xgPcFpwDzIvBmOLVj-15" value="" style="endArrow=classic;html=1;rounded=0;exitX=0.5;exitY=1;exitDx=0;exitDy=0;entryX=0;entryY=0.5;entryDx=0;entryDy=0;fontFamily=Times New Roman;fontSize=14;" parent="1" source="ZJ_xgPcFpwDzIvBmOLVj-6" target="ZJ_xgPcFpwDzIvBmOLVj-8" edge="1">
          <mxGeometry width="50" height="50" relative="1" as="geometry">
            <mxPoint x="400" y="760" as="sourcePoint" />
            <mxPoint x="300" y="590" as="targetPoint" />
            <Array as="points">
              <mxPoint x="420" y="820" />
              <mxPoint x="280" y="820" />
              <mxPoint x="280" y="480" />
            </Array>
          </mxGeometry>
        </mxCell>
        <mxCell id="ZJ_xgPcFpwDzIvBmOLVj-16" value="" style="endArrow=classic;html=1;rounded=0;exitX=1;exitY=0.5;exitDx=0;exitDy=0;entryX=0;entryY=0.5;entryDx=0;entryDy=0;fontFamily=Times New Roman;fontSize=14;" parent="1" source="ZJ_xgPcFpwDzIvBmOLVj-8" target="ZJ_xgPcFpwDzIvBmOLVj-9" edge="1">
          <mxGeometry width="50" height="50" relative="1" as="geometry">
            <mxPoint x="400" y="720" as="sourcePoint" />
            <mxPoint x="250" y="520" as="targetPoint" />
            <Array as="points">
              <mxPoint x="540" y="480" />
              <mxPoint x="540" y="840" />
              <mxPoint x="260" y="840" />
              <mxPoint x="260" y="360" />
            </Array>
          </mxGeometry>
        </mxCell>
        <mxCell id="ZJ_xgPcFpwDzIvBmOLVj-17" value="" style="endArrow=classic;html=1;rounded=0;exitX=1;exitY=0.5;exitDx=0;exitDy=0;entryX=0.5;entryY=0;entryDx=0;entryDy=0;entryPerimeter=0;fontFamily=Times New Roman;fontSize=14;" parent="1" source="ZJ_xgPcFpwDzIvBmOLVj-9" target="ZJ_xgPcFpwDzIvBmOLVj-7" edge="1">
          <mxGeometry width="50" height="50" relative="1" as="geometry">
            <mxPoint x="400" y="550" as="sourcePoint" />
            <mxPoint x="570" y="650" as="targetPoint" />
            <Array as="points">
              <mxPoint x="580" y="360" />
              <mxPoint x="580" y="860" />
              <mxPoint x="420" y="860" />
            </Array>
          </mxGeometry>
        </mxCell>
      </root>
    </mxGraphModel>
  </diagram>
</mxfile>
